<?xml version="1.0" encoding="UTF-8"?>
<!DOCTYPE svg PUBLIC "-//W3C//DTD SVG 1.1//EN" "http://www.w3.org/Graphics/SVG/1.1/DTD/svg11.dtd">
<!-- Creator: CorelDRAW -->
<svg xmlns="http://www.w3.org/2000/svg" xml:space="preserve" width="6.82666in" height="6.82666in" style="shape-rendering:geometricPrecision; text-rendering:geometricPrecision; image-rendering:optimizeQuality; fill-rule:evenodd; clip-rule:evenodd"
viewBox="0 0 6.82666 6.82666"
 xmlns:xlink="http://www.w3.org/1999/xlink">
 <defs>
  <style type="text/css">
   <![CDATA[
    .fil2 {fill:none}
    .fil5 {fill:#424242}
    .fil9 {fill:#616161}
    .fil6 {fill:#66BB6A}
    .fil8 {fill:#795548}
    .fil11 {fill:#A8A8A8}
    .fil10 {fill:#B0B0B0}
    .fil12 {fill:#BDBDBD}
    .fil1 {fill:#EF6C00}
    .fil4 {fill:#F6C4AA}
    .fil0 {fill:#FB8C00}
    .fil7 {fill:#FFA726}
    .fil3 {fill:#FFDDCC}
    .fil13 {fill:#212121;fill-rule:nonzero}
   ]]>
  </style>
   <clipPath id="id0">
    <path d="M3.41333 0c1.88513,0 3.41333,1.5282 3.41333,3.41333 0,1.88513 -1.5282,3.41333 -3.41333,3.41333 -1.88513,0 -3.41333,-1.5282 -3.41333,-3.41333 0,-1.88513 1.5282,-3.41333 3.41333,-3.41333z"/>
   </clipPath>
 </defs>
 <g id="Layer_x0020_1">
  <metadata id="CorelCorpID_0Corel-Layer"/>
  <path class="fil0" d="M3.41333 0c1.88513,0 3.41333,1.5282 3.41333,3.41333 0,1.88513 -1.5282,3.41333 -3.41333,3.41333 -1.88513,0 -3.41333,-1.5282 -3.41333,-3.41333 0,-1.88513 1.5282,-3.41333 3.41333,-3.41333z"/>
  <g style="clip-path:url(#id0)">
   <g id="_435557488">
    <g>
     <polygon id="_4353207841" class="fil1" points="3.94837,2.93085 7.73464,6.71712 7.73108,6.72219 7.72711,6.72752 7.72275,6.73309 7.71801,6.73891 7.71289,6.74495 7.70742,6.7512 7.70159,6.75765 7.69544,6.76429 7.68895,6.77111 7.68215,6.77809 7.67505,6.78523 7.66766,6.79251 7.66,6.79992 7.65206,6.80744 7.64387,6.81508 7.63543,6.82281 7.62677,6.83062 7.61788,6.8385 7.60878,6.84644 7.59949,6.85443 7.59002,6.86245 7.58036,6.8705 7.57055,6.87856 7.56058,6.88662 7.55048,6.89467 7.54024,6.9027 7.5299,6.91069 7.51944,6.91863 7.5089,6.92652 7.49828,6.93433 7.48758,6.94206 7.47683,6.9497 3.69056,3.16343 3.70131,3.15579 3.71201,3.14806 3.72263,3.14024 3.73318,3.13236 3.74363,3.12441 3.75398,3.11643 3.76421,3.1084 3.77431,3.10035 3.78428,3.09229 3.79409,3.08423 3.80375,3.07618 3.81322,3.06816 3.82252,3.06017 3.83161,3.05223 3.8405,3.04435 3.84917,3.03654 3.8576,3.02881 3.86579,3.02117 3.87373,3.01365 3.88139,3.00624 3.88878,2.99896 3.89589,2.99182 3.90269,2.98484 3.90917,2.97802 3.91533,2.97138 3.92115,2.96493 3.92663,2.95868 3.93174,2.95264 3.93648,2.94682 3.94085,2.94124 3.94481,2.93592 "/>
     <polygon id="_435320808" class="fil1" points="4.94654,3.95998 8.7328,7.74625 8.73794,7.75179 8.74274,7.75754 8.74719,7.7635 8.75126,7.76965 8.75493,7.77598 8.75819,7.7825 8.76102,7.78917 8.76339,7.79599 8.76528,7.80296 8.76668,7.81005 8.76756,7.81726 8.76791,7.82459 8.76771,7.83201 8.76693,7.83952 8.76556,7.8471 4.9793,4.06083 4.98067,4.05324 4.98144,4.04574 4.98165,4.03831 4.9813,4.03099 4.98041,4.02378 4.97901,4.01669 4.97712,4.00972 4.97475,4.00289 4.97193,3.99622 4.96867,3.98971 4.96499,3.98338 4.96092,3.97722 4.95648,3.97127 4.95167,3.96552 "/>
     <polygon id="_435321840" class="fil1" points="4.9793,4.06083 8.76556,7.8471 8.76554,7.8472 8.76552,7.84731 8.7655,7.84741 8.76548,7.84752 8.76546,7.84762 8.76544,7.84772 8.76541,7.84783 8.76539,7.84793 4.97912,4.06166 4.97915,4.06156 4.97917,4.06145 4.97919,4.06135 4.97922,4.06124 4.97924,4.06114 4.97926,4.06104 4.97928,4.06093 "/>
     <polygon id="_430375856" class="fil1" points="3.13613,3.16344 6.92239,6.94971 6.91164,6.94207 6.90094,6.93434 6.89031,6.92652 6.87977,6.91864 6.86932,6.9107 6.85897,6.9027 6.84874,6.89468 6.83863,6.88663 6.82866,6.87857 6.81885,6.87051 6.80919,6.86246 6.79971,6.85443 6.79042,6.84644 6.78132,6.8385 6.77244,6.83062 6.76377,6.82281 6.75533,6.81508 6.74714,6.80745 6.7392,6.79992 6.73154,6.79251 6.72415,6.78523 2.93788,2.99896 2.94527,3.00624 2.95294,3.01365 2.96087,3.02118 2.96906,3.02881 2.9775,3.03654 2.98617,3.04435 2.99506,3.05223 3.00415,3.06017 3.01344,3.06816 3.02293,3.07619 3.03258,3.08424 3.04239,3.0923 3.05236,3.10036 3.06247,3.10841 3.0727,3.11643 3.08305,3.12443 3.0935,3.13237 3.10405,3.14025 3.11468,3.14807 3.12537,3.1558 "/>
     <polygon id="_430375544" class="fil1" points="4.2234,5.02038 8.00967,8.80665 8.00967,8.81366 4.2234,5.02739 "/>
     <polygon id="_430376216" class="fil1" points="2.60326,5.02038 6.38952,8.80665 5.96994,8.80665 5.9622,8.80645 5.95465,8.80584 5.94729,8.80484 5.94013,8.80346 5.93317,8.80171 5.92641,8.7996 5.91983,8.79715 5.91346,8.79435 5.90728,8.79123 5.9013,8.78779 5.8955,8.78405 5.8899,8.78002 5.8845,8.7757 2.09823,4.98943 2.10363,4.99374 2.10924,4.99778 2.11503,5.00152 2.12101,5.00496 2.12719,5.00808 2.13357,5.01087 2.14014,5.01333 2.1469,5.01544 2.15387,5.01719 2.16102,5.01857 2.16838,5.01957 2.17593,5.02018 2.18368,5.02038 "/>
     <polygon id="_430375520" class="fil1" points="2.79324,2.64104 6.57951,6.42731 6.57513,6.42753 6.5707,6.42743 6.56625,6.427 6.56177,6.42625 6.55727,6.42519 6.55276,6.42383 6.54824,6.42217 6.54372,6.42022 6.53921,6.41798 6.53472,6.41545 6.53024,6.41266 6.5258,6.40959 6.52139,6.40626 6.51702,6.40268 6.5127,6.39884 6.50843,6.39476 2.72216,2.60848 2.72643,2.61257 2.73075,2.61641 2.73512,2.61999 2.73953,2.62332 2.74398,2.62639 2.74845,2.62918 2.75294,2.6317 2.75745,2.63394 2.76197,2.6359 2.76649,2.63756 2.771,2.63892 2.7755,2.63998 2.77998,2.64072 2.78444,2.64115 2.78886,2.64126 "/>
     <polygon id="_430375568" class="fil1" points="4.49124,3.80543 8.27751,7.5917 8.28229,7.597 8.287,7.60266 8.29165,7.60867 8.29623,7.61502 8.30076,7.6217 8.30521,7.62872 8.30961,7.63605 8.31395,7.64369 8.31824,7.65165 8.32246,7.65989 8.32663,7.66844 8.33074,7.67726 8.33481,7.68636 8.33881,7.69574 4.55255,3.90946 4.54854,3.90009 4.54448,3.89099 4.54036,3.88217 4.53619,3.87362 4.53197,3.86537 4.52769,3.85742 4.52335,3.84978 4.51894,3.84244 4.51449,3.83543 4.50996,3.82875 4.50538,3.8224 4.50074,3.81639 4.49602,3.81073 "/>
     <polygon id="_430375664" class="fil1" points="3.69056,3.16343 7.47683,6.9497 7.47683,7.06332 3.69056,3.27705 "/>
     <polygon id="_430375688" class="fil1" points="3.93695,1.67433 7.72322,5.4606 7.7366,5.47681 7.74916,5.4942 7.76091,5.51277 7.77186,5.53253 7.78201,5.55349 7.79137,5.57567 7.79996,5.59907 7.80778,5.62371 7.81483,5.6496 7.82113,5.67676 7.82669,5.70519 7.83151,5.73489 7.83559,5.7659 7.83896,5.79821 7.84161,5.83185 7.84356,5.86681 7.84481,5.90311 7.84537,5.94077 7.84525,5.97979 7.84445,6.02019 7.84299,6.06198 7.84088,6.10516 4.05461,2.31889 4.05672,2.2757 4.05819,2.23392 4.05898,2.19352 4.0591,2.1545 4.05854,2.11684 4.05729,2.08054 4.05534,2.04557 4.05269,2.01194 4.04933,1.97963 4.04524,1.94862 4.04042,1.91891 4.03487,1.89048 4.02857,1.86333 4.02151,1.83744 4.0137,1.8128 4.00511,1.78939 3.99574,1.76722 3.98559,1.74626 3.97464,1.7265 3.96289,1.70793 3.95033,1.69054 "/>
     <polygon id="_430375784" class="fil1" points="4.05461,2.31889 7.84088,6.10516 7.84114,6.1098 7.84139,6.11444 7.84161,6.11908 7.84181,6.12372 7.842,6.12836 7.84217,6.133 7.84231,6.13763 7.84244,6.14227 4.05618,2.356 4.05605,2.35136 4.0559,2.34672 4.05573,2.34209 4.05555,2.33745 4.05534,2.33281 4.05512,2.32817 4.05487,2.32353 "/>
     <polygon id="_430375880" class="fil1" points="4.15646,2.34825 7.94272,6.13452 7.94604,6.13828 7.94916,6.14234 7.95207,6.14669 7.95477,6.15132 7.95726,6.15622 7.95954,6.16138 7.9616,6.16678 7.96344,6.17243 7.96507,6.17828 7.96648,6.18436 7.96765,6.19063 7.96861,6.19709 7.96933,6.20374 7.96982,6.21054 7.97008,6.2175 7.9701,6.22461 7.96988,6.23184 7.96942,6.2392 7.96872,6.24666 7.96776,6.25422 7.96657,6.26187 7.96512,6.26959 7.96341,6.27737 7.96145,6.28521 7.95924,6.29309 7.95676,6.30099 4.17049,2.51472 4.17297,2.50681 4.17519,2.49894 4.17715,2.4911 4.17885,2.48332 4.1803,2.47559 4.1815,2.46795 4.18245,2.46039 4.18315,2.45293 4.18361,2.44557 4.18383,2.43833 4.18381,2.43123 4.18356,2.42427 4.18306,2.41746 4.18234,2.41082 4.18139,2.40436 4.18021,2.39809 4.1788,2.39201 4.17718,2.38615 4.17533,2.38051 4.17327,2.37511 4.17099,2.36995 4.1685,2.36505 4.1658,2.36042 4.16289,2.35607 4.15978,2.35201 "/>
     <polygon id="_430376072" class="fil1" points="4.17049,2.51472 7.95676,6.30099 7.95409,6.30871 7.95124,6.31626 7.94821,6.32363 7.945,6.33081 7.94164,6.3378 7.93812,6.34458 7.93446,6.35116 7.93065,6.35751 7.92672,6.36365 7.92267,6.36954 7.91851,6.3752 7.91424,6.38061 7.90988,6.38577 7.90543,6.39066 7.90091,6.39528 7.89631,6.39963 7.89165,6.40369 7.88694,6.40746 7.88218,6.41093 7.87739,6.4141 7.87256,6.41694 7.86772,6.41947 7.86287,6.42167 7.85801,6.42353 7.85316,6.42504 7.84832,6.42621 7.8435,6.42701 7.83872,6.42745 7.83397,6.42752 7.82927,6.4272 7.82462,6.42649 7.82004,6.42539 4.03377,2.63911 4.03835,2.64022 4.043,2.64093 4.0477,2.64124 4.05245,2.64118 4.05724,2.64074 4.06205,2.63994 4.06689,2.63877 4.07174,2.63726 4.0766,2.6354 4.08145,2.6332 4.0863,2.63067 4.09112,2.62783 4.09591,2.62466 4.10067,2.62119 4.10538,2.61742 4.11004,2.61336 4.11464,2.60901 4.11917,2.60439 4.12361,2.5995 4.12798,2.59434 4.13224,2.58893 4.13641,2.58327 4.14046,2.57737 4.14439,2.57124 4.14819,2.56489 4.15185,2.55831 4.15537,2.55153 4.15874,2.54454 4.16194,2.53736 4.16497,2.52999 4.16783,2.52244 "/>
     <polygon id="_430376576" class="fil1" points="4.03377,2.63911 7.82004,6.42539 7.81755,6.43935 7.81497,6.45309 7.81232,6.46662 7.80961,6.47991 7.80683,6.49296 7.80399,6.50576 7.80111,6.5183 7.79819,6.53056 7.79524,6.54254 7.79226,6.55423 7.78926,6.56561 7.78625,6.57669 7.78324,6.58744 7.78023,6.59785 7.77723,6.60793 7.77424,6.61765 7.77128,6.62701 7.76835,6.636 7.76546,6.64461 7.76262,6.65282 7.75983,6.66063 7.7571,6.66803 7.75443,6.675 7.75184,6.68154 7.74933,6.68765 7.74691,6.69329 7.74459,6.69848 7.74236,6.70319 7.74025,6.70742 7.73825,6.71116 7.73638,6.71439 7.73464,6.71712 3.94837,2.93085 3.95011,2.92812 3.95198,2.92489 3.95398,2.92115 3.95609,2.91692 3.95832,2.91221 3.96064,2.90702 3.96306,2.90137 3.96557,2.89527 3.96817,2.88873 3.97083,2.88176 3.97356,2.87436 3.97635,2.86655 3.9792,2.85833 3.98209,2.84973 3.98502,2.84074 3.98798,2.83138 3.99096,2.82166 3.99396,2.81158 3.99697,2.80117 3.99998,2.79041 4.00299,2.77934 4.00599,2.76796 4.00897,2.75627 4.01193,2.74429 4.01485,2.73202 4.01772,2.71949 4.02056,2.70669 4.02334,2.69364 4.02606,2.68035 4.0287,2.66682 4.03128,2.65307 "/>
     <polygon id="_430376528" class="fil1" points="3.69056,3.27705 7.47683,7.06332 7.47683,7.14754 3.69056,3.36127 "/>
     <polygon id="_430376672" class="fil1" points="4.97912,4.06166 8.76539,7.84793 8.58146,8.65446 8.57962,8.66207 8.5776,8.66961 8.5754,8.67707 8.57301,8.68443 8.57044,8.69168 8.56768,8.69881 8.56473,8.70581 8.5616,8.71267 8.55828,8.71937 8.55477,8.72592 8.55108,8.73229 8.54719,8.73848 8.54312,8.74447 8.53886,8.75026 8.53441,8.75582 8.52977,8.76116 8.52494,8.76626 8.51991,8.77111 8.5147,8.7757 8.50929,8.78002 8.50369,8.78405 8.4979,8.78779 8.49191,8.79123 8.48574,8.79435 8.47936,8.79715 8.47279,8.7996 8.46602,8.80171 8.45906,8.80346 8.45191,8.80484 8.44455,8.80584 8.437,8.80645 8.42925,8.80665 8.00967,8.80665 4.2234,5.02038 4.64298,5.02038 4.65073,5.02018 4.65828,5.01957 4.66564,5.01857 4.6728,5.01719 4.67976,5.01544 4.68652,5.01333 4.69309,5.01087 4.69947,5.00808 4.70565,5.00496 4.71163,5.00152 4.71743,4.99778 4.72302,4.99374 4.72843,4.98943 4.73365,4.98484 4.73867,4.97999 4.7435,4.97489 4.74814,4.96955 4.75259,4.96398 4.75685,4.9582 4.76093,4.9522 4.76481,4.94602 4.7685,4.93965 4.77201,4.9331 4.77533,4.9264 4.77846,4.91954 4.78141,4.91254 4.78417,4.90541 4.78674,4.89816 4.78913,4.8908 4.79133,4.88334 4.79335,4.8758 4.79519,4.86819 "/>
     <polygon id="_430376600" class="fil1" points="4.67761,5.03289 8.46388,8.81916 8.46617,8.82194 8.46791,8.82511 8.469,8.82863 8.46938,8.83239 8.46938,8.93162 8.469,8.93538 8.46791,8.93889 8.46617,8.94207 8.46388,8.94485 8.46111,8.94714 8.45793,8.94887 8.45442,8.94996 8.45066,8.95035 5.93295,8.95035 5.92919,8.94996 5.92568,8.94887 5.9225,8.94714 5.91972,8.94485 2.13346,5.15857 2.13623,5.16087 2.13941,5.1626 2.14292,5.16369 2.14668,5.16407 4.66439,5.16407 4.66815,5.16369 4.67166,5.1626 4.67484,5.16087 4.67761,5.15857 4.67991,5.1558 4.68164,5.15262 4.68273,5.14911 4.68311,5.14535 4.68311,5.04611 4.68273,5.04235 4.68164,5.03884 4.67991,5.03567 "/>
     <polygon id="_430376912" class="fil1" points="5.27455,5.16435 9.06082,8.95063 9.06082,9.06627 5.27455,5.28 "/>
     <polygon id="_430376888" class="fil1" points="5.27455,5.28 9.06082,9.06627 5.33838,9.06627 1.55211,5.28 "/>
    </g>
    <path id="_435557296" class="fil1" d="M3.69056 3.36127c0.560705,0.246665 0.723752,0.375189 0.790921,0.43465 0.0264016,0.0233622 0.0498189,0.0628504 0.0710669,0.113543l0.274366 0c0.0834252,0 0.170232,0.0701024 0.152382,0.151362 -4.72441e-005,0.000279528 -0.000110236,0.000559055 -0.000173228,0.000834646l-0.183929 0.806524c-0.0186142,0.0816142 -0.0684921,0.152197 -0.152209,0.152197l-0.419587 0 0 0.00700787 0.440992 0c0.0102992,0 0.0187244,0.0084252 0.0187244,0.0187244l0 0.0992323c0,0.0103031 -0.0084252,0.0187283 -0.0187244,0.0187283l-2.51771 0c-0.0103031,0 -0.0187244,-0.0084252 -0.0187244,-0.0187283l0 -0.0992323c0,-0.0102992 0.00842126,-0.0187244 0.0187244,-0.0187244l0.456575 0 0 -0.00700787 -0.419579 0c-0.0837165,0 -0.133598,-0.0705827 -0.152209,-0.152197l-0.183933 -0.806524c-6.29921e-005,-0.000275591 -0.000125984,-0.000555118 -0.000169291,-0.000834646 -0.0178504,-0.0812598 0.0689567,-0.151362 0.152382,-0.151362l0.27437 0c0.021248,-0.0506929 0.0446614,-0.0901811 0.071063,-0.113543 0.0669449,-0.0592362 0.235165,-0.190382 0.790945,-0.435319l0 -0.0835394 0 -0.113626c-0.114976,-0.0809252 -0.222083,-0.179941 -0.257831,-0.232591 -0.0177677,-0.0261575 -0.0589331,-0.14074 -0.0850551,-0.289811 -0.0465118,0.00416142 -0.100898,-0.0488622 -0.126394,-0.126315 -0.0278228,-0.0844331 -0.0107677,-0.165921 0.0380709,-0.182016 0.0137638,-0.0045315 0.0285866,-0.00337795 0.0434016,0.00250394 -0.033937,-0.330307 0.0628819,-0.602335 0.326937,-0.724913 0.16113,-0.0748031 0.473146,-0.0791969 0.681059,-0.0363425 0.239681,0.0494055 0.324335,0.276791 0.298295,0.744937 0.000728346,0.012374 0.00124409,0.024748 0.00156693,0.0371102 0.0248425,-0.0217559 0.0521614,-0.0312126 0.076248,-0.0232835 0.0488386,0.0160827 0.0658937,0.0975709 0.0380669,0.182004 -0.0274134,0.0832677 -0.0882165,0.138307 -0.13672,0.124394 -0.0261063,0.150008 -0.0675512,0.265457 -0.0854016,0.291732 -0.0357598,0.0526496 -0.142846,0.151657 -0.257811,0.232579l0 0.113622 0 0.0842244zm-2.13845 1.80308l3.72244 0 0 0.115642 -3.72244 0 0 -0.115642z"/>
   </g>
  </g>
  <path class="fil2" d="M3.41333 0c1.88513,0 3.41333,1.5282 3.41333,3.41333 0,1.88513 -1.5282,3.41333 -3.41333,3.41333 -1.88513,0 -3.41333,-1.5282 -3.41333,-3.41333 0,-1.88513 1.5282,-3.41333 3.41333,-3.41333z"/>
  <path class="fil3" d="M3.15508 3.35227c-0.570925,0.250307 -0.742197,0.383748 -0.809898,0.443654 -0.104327,0.0923228 -0.162035,0.436449 -0.223571,0.728634l1.29171 0 1.29173 0c-0.0615315,-0.292185 -0.119236,-0.636311 -0.223571,-0.728634 -0.0676732,-0.0599055 -0.232673,-0.189917 -0.803626,-0.440228l-0.522776 -0.0034252z"/>
  <path class="fil3" d="M3.69056 2.85334l0 0.632874c-0.152476,0.186736 -0.401976,0.180276 -0.554433,0l0 -0.632874c0,-0.34172 0.554433,-0.34172 0.554433,0z"/>
  <path class="fil4" d="M3.69056 2.85334l0 0.423709c-0.104913,0.0764685 -0.20602,0.119307 -0.27722,0.119307 -0.0711969,0 -0.172323,-0.0428386 -0.277213,-0.119295l0 -0.42372c0,-0.34172 0.554433,-0.34172 0.554433,0z"/>
  <path class="fil3" d="M2.70492 2.3327c0.048811,-0.016063 0.110941,0.0393386 0.138744,0.123783 0.0278268,0.0844409 0.0107638,0.165929 -0.0380472,0.182004 -0.0488386,0.0160827 -0.110969,-0.0393228 -0.138768,-0.123768 -0.0278228,-0.0844331 -0.0107638,-0.165921 0.0380709,-0.18202z"/>
  <path class="fil3" d="M4.13243 2.33271c-0.0488386,-0.0160748 -0.110969,0.0393268 -0.138772,0.123772 -0.0277992,0.0844409 -0.0107638,0.165929 0.0380748,0.182004 0.0488268,0.0160827 0.110961,-0.0393307 0.13876,-0.123768 0.0278268,-0.0844331 0.0107717,-0.165921 -0.038063,-0.182008z"/>
  <path class="fil3" d="M3.41332 1.71712c-0.930402,0 -0.595803,1.12424 -0.535028,1.21372 0.0670079,0.098689 0.38472,0.36028 0.535028,0.36028 0.150346,0 0.468016,-0.261583 0.535047,-0.36028 0.0607992,-0.0894961 0.395378,-1.21372 -0.535047,-1.21372z"/>
  <path class="fil5" d="M3.20273 1.97082c-0.156146,-0.103358 -0.356335,0.28622 -0.410047,0.602874 -0.114256,-0.434346 -0.0428189,-0.812343 0.282575,-0.963398 0.16113,-0.0748031 0.47315,-0.0791969 0.681059,-0.0363425 0.27261,0.0561929 0.344669,0.342626 0.281409,0.951673 -0.0574291,-0.257512 -0.26022,-0.662087 -0.413791,-0.554807 -0.127937,0.089378 -0.29311,0.0847756 -0.421205,0z"/>
  <path class="fil4" d="M3.11503 2.83247c0.203673,0.0787756 0.433728,0.0710827 0.596618,0 -0.0651102,0.168579 -0.503807,0.169945 -0.596618,0z"/>
  <path class="fil6" d="M2.94024 3.4524c-0.401476,0.188504 -0.536724,0.294713 -0.595055,0.346331 -0.104327,0.092315 -0.162035,0.436429 -0.223591,0.728634l1.29173 0 1.29175 0c-0.0615512,-0.292205 -0.119256,-0.636331 -0.223591,-0.728634 -0.0563504,-0.0498898 -0.180252,-0.148398 -0.54972,-0.324461 -0.0026378,0.00272835 -0.00626772,0.00465354 -0.00788583,0.00817717 -0.100634,0.220346 -0.278134,0.345961 -0.462386,0.408547 -0.255402,-0.0500827 -0.47472,-0.248059 -0.508748,-0.421268 -0.00414961,-0.0058937 -0.00833858,-0.0115394 -0.0125039,-0.0173268z"/>
  <path class="fil7" d="M2.27967 3.8994c-0.0656969,0.148012 -0.110772,0.403319 -0.158083,0.627965l0.524394 0c-0.0117283,-0.366504 -0.012374,-0.561433 -0.366311,-0.627965z"/>
  <path class="fil7" d="M4.54699 3.8994c0.0657244,0.148012 0.110772,0.403319 0.158083,0.627965l-0.524394 0c0.0117126,-0.366504 0.012378,-0.561433 0.366311,-0.627965z"/>
  <path class="fil7" d="M2.94024 3.4524c-0.0379882,0.0178307 -0.0735827,0.0349252 -0.106953,0.0513071 0.0970906,0.202252 0.274551,0.405996 0.628205,0.486169 0.307185,-0.0925 0.468406,-0.280579 0.56113,-0.471461 -0.0285276,-0.0141417 -0.0587362,-0.0288465 -0.0908583,-0.0441457 -0.0026378,0.00272835 -0.00626772,0.00465354 -0.00788583,0.00817717 -0.100634,0.220346 -0.278134,0.345961 -0.462386,0.408547 -0.255402,-0.0500827 -0.47472,-0.248059 -0.508748,-0.421268 -0.00414961,-0.0058937 -0.00833858,-0.0115394 -0.0125039,-0.0173268z"/>
  <rect class="fil8" x="1.55211" y="5.16435" width="3.72244" height="0.115644"/>
  <rect class="fil9" x="2.12796" y="5.02739" width="2.55516" height="0.136686" rx="0.0187283" ry="0.0187283"/>
  <path class="fil10" d="M4.64298 5.02038c0.0837165,0 0.133598,-0.0705827 0.152209,-0.152201l0.183929 -0.80652c0.0186142,-0.0816181 -0.0684961,-0.152201 -0.152209,-0.152201 -0.852339,0 -1.97483,0 -2.82717,0 -0.0837126,0 -0.170823,0.0705827 -0.152209,0.152201l0.183929 0.80652c0.0186102,0.0816181 0.0684882,0.152201 0.152209,0.152201 0.72972,0 1.72959,0 2.45931,0z"/>
  <path class="fil11" d="M4.9793 4.06083c0.0178346,-0.0812638 -0.0689567,-0.151366 -0.152382,-0.151366 -0.852339,0 -1.97483,0 -2.82717,0 -0.0834252,0 -0.170217,0.0701024 -0.152382,0.151366l3.13193 0z"/>
  <rect class="fil5" x="2.60326" y="5.01806" width="0.234937" height="0.01365"/>
  <rect class="fil5" x="3.98846" y="5.01806" width="0.234937" height="0.01365"/>
  <rect class="fil5" x="2.2517" y="5.05693" width="0.273698" height="0.0775956"/>
  <rect class="fil12" x="2.27099" y="5.06906" width="0.0299067" height="0.053338"/>
  <rect class="fil12" x="2.31877" y="5.06906" width="0.0299067" height="0.053338"/>
  <rect class="fil12" x="2.36654" y="5.06906" width="0.0299067" height="0.053338"/>
  <rect class="fil12" x="2.41432" y="5.06906" width="0.0299067" height="0.053338"/>
  <rect class="fil12" x="2.4621" y="5.06906" width="0.0299067" height="0.053338"/>
  <rect class="fil5" x="4.28567" y="5.06566" width="0.273698" height="0.0601501"/>
  <rect class="fil12" x="4.32262" y="5.07571" width="0.199793" height="0.0400312"/>
  <circle class="fil12" cx="4.30296" cy="5.09573" r="0.00601852"/>
  <circle class="fil12" cx="4.54113" cy="5.09573" r="0.00601852"/>
  <path class="fil13" d="M4.30296 5.08833c0.00203937,0 0.0038937,0.000834646 0.00522835,0.00216929 0.00133465,0.00133465 0.00216929,0.00318898 0.00216929,0.00522835 0,0.00203937 -0.000834646,0.0038937 -0.00216929,0.00523228 -0.00133465,0.00133465 -0.00318898,0.00216929 -0.00522835,0.00216929 -0.00204331,0 -0.00389764,-0.000834646 -0.00523228,-0.00216929 -0.00133465,-0.00133858 -0.00216929,-0.00319291 -0.00216929,-0.00523228 0,-0.00203937 0.000834646,-0.0038937 0.00216929,-0.00522835 0.00133465,-0.00133465 0.00318898,-0.00216929 0.00523228,-0.00216929zm0.00327953 0.00411811c-0.000834646,-0.000834646 -0.00199606,-0.00135433 -0.00327953,-0.00135433 -0.0012874,0 -0.00244882,0.000519685 -0.00328346,0.00135433 -0.000834646,0.000834646 -0.00135433,0.00199606 -0.00135433,0.00327953 0,0.00128346 0.000519685,0.00244882 0.00135433,0.00328346 0.000834646,0.000834646 0.00199606,0.00135433 0.00328346,0.00135433 0.00128346,0 0.00244488,-0.000519685 0.00327953,-0.00135433 0.000834646,-0.000834646 0.00135433,-0.002 0.00135433,-0.00328346 0,-0.00128346 -0.000519685,-0.00244488 -0.00135433,-0.00327953z"/>
  <path class="fil13" d="M4.54113 5.08833c0.00203937,0 0.0038937,0.000834646 0.00522835,0.00216929 0.00133465,0.00133465 0.00216929,0.00318898 0.00216929,0.00522835 0,0.00203937 -0.000834646,0.0038937 -0.00216929,0.00523228 -0.00133465,0.00133465 -0.00318898,0.00216929 -0.00522835,0.00216929 -0.00204331,0 -0.00389764,-0.000834646 -0.00523228,-0.00216929 -0.00133465,-0.00133858 -0.00216929,-0.00319291 -0.00216929,-0.00523228 0,-0.00203937 0.000834646,-0.0038937 0.00216929,-0.00522835 0.00133465,-0.00133465 0.00318898,-0.00216929 0.00523228,-0.00216929zm0.00327953 0.00411811c-0.000834646,-0.000834646 -0.00199606,-0.00135433 -0.00327953,-0.00135433 -0.0012874,0 -0.00244882,0.000519685 -0.00328346,0.00135433 -0.000834646,0.000834646 -0.00135433,0.00199606 -0.00135433,0.00327953 0,0.00128346 0.000519685,0.00244882 0.00135433,0.00328346 0.000834646,0.000834646 0.00199606,0.00135433 0.00328346,0.00135433 0.00128346,0 0.00244488,-0.000519685 0.00327953,-0.00135433 0.000834646,-0.000834646 0.00135433,-0.002 0.00135433,-0.00328346 0,-0.00128346 -0.000519685,-0.00244488 -0.00135433,-0.00327953z"/>
  <rect class="fil12" x="2.64016" y="5.0731" width="0.399883" height="0.0093388"/>
  <rect class="fil12" x="2.64016" y="5.09106" width="0.399883" height="0.0093388"/>
  <rect class="fil12" x="2.64016" y="5.10902" width="0.399883" height="0.0093388"/>
  <rect class="fil12" x="3.77103" y="5.0731" width="0.399883" height="0.0093388"/>
  <rect class="fil12" x="3.77103" y="5.09106" width="0.399883" height="0.0093388"/>
  <rect class="fil12" x="3.77103" y="5.10902" width="0.399883" height="0.0093388"/>
  <path class="fil12" d="M3.41333 4.33384c0.117453,0 0.212665,0.0726969 0.212665,0.16237 0,0.0896772 -0.0952126,0.188232 -0.212665,0.188232 -0.117449,0 -0.212661,-0.0985551 -0.212661,-0.188232 0,-0.0896732 0.0952126,-0.16237 0.212661,-0.16237z"/>
 </g>
</svg>
