<?xml version="1.0" encoding="UTF-8"?>
<svg xmlns="http://www.w3.org/2000/svg" xmlns:xlink="http://www.w3.org/1999/xlink" width="250px" height="250px" viewBox="0 0 250 250" version="1.1">
<defs>
<clipPath id="clip1">
  <path d="M 123 0 L 246.914062 0 L 246.914062 84 L 123 84 Z M 123 0 "/>
</clipPath>
<clipPath id="clip2">
  <path d="M 123 83 L 246.914062 83 L 246.914062 167 L 123 167 Z M 123 83 "/>
</clipPath>
</defs>
<g id="surface1">
<path style=" stroke:none;fill-rule:nonzero;fill:rgb(3.921569%,81.176471%,51.372549%);fill-opacity:1;" d="M 61.726562 250 C 95.800781 250 123.457031 231.332031 123.457031 208.332031 L 123.457031 166.667969 L 61.726562 166.667969 C 27.65625 166.667969 0 185.332031 0 208.332031 C 0 231.332031 27.65625 250 61.726562 250 Z M 61.726562 250 "/>
<path style=" stroke:none;fill-rule:nonzero;fill:rgb(63.529412%,34.901961%,100%);fill-opacity:1;" d="M 0 125 C 0 102 27.65625 83.332031 61.726562 83.332031 L 123.457031 83.332031 L 123.457031 166.667969 L 61.726562 166.667969 C 27.65625 166.667969 0 148 0 125 Z M 0 125 "/>
<path style=" stroke:none;fill-rule:nonzero;fill:rgb(94.901961%,30.588235%,11.764706%);fill-opacity:1;" d="M 0 41.667969 C 0 18.667969 27.65625 0 61.726562 0 L 123.457031 0 L 123.457031 83.332031 L 61.726562 83.332031 C 27.65625 83.332031 0 64.667969 0 41.667969 Z M 0 41.667969 "/>
<g clip-path="url(#clip1)" clip-rule="nonzero">
<path style=" stroke:none;fill-rule:nonzero;fill:rgb(100%,44.705882%,38.431373%);fill-opacity:1;" d="M 123.457031 0 L 185.1875 0 C 219.257812 0 246.914062 18.667969 246.914062 41.667969 C 246.914062 64.667969 219.257812 83.332031 185.1875 83.332031 L 123.457031 83.332031 Z M 123.457031 0 "/>
</g>
<g clip-path="url(#clip2)" clip-rule="nonzero">
<path style=" stroke:none;fill-rule:nonzero;fill:rgb(10.196078%,73.72549%,99.607843%);fill-opacity:1;" d="M 246.914062 125 C 246.914062 148 219.257812 166.667969 185.1875 166.667969 C 151.113281 166.667969 123.457031 148 123.457031 125 C 123.457031 102 151.113281 83.332031 185.1875 83.332031 C 219.257812 83.332031 246.914062 102 246.914062 125 Z M 246.914062 125 "/>
</g>
</g>
</svg>
