<?xml version="1.0" encoding="UTF-8"?>
<svg xmlns="http://www.w3.org/2000/svg" xmlns:xlink="http://www.w3.org/1999/xlink" width="250px" height="250px" viewBox="0 0 250 250" version="1.1">
<g id="surface1">
<path style=" stroke:none;fill-rule:nonzero;fill:rgb(87.058824%,29.803922%,21.176471%);fill-opacity:1;" d="M 245.28125 113.867188 L 136.132812 4.707031 C 129.84375 -1.574219 119.65625 -1.574219 113.367188 4.707031 L 90.703125 27.363281 L 119.453125 56.125 C 126.371094 53.761719 134.03125 55.554688 139.179688 60.742188 C 144.332031 65.925781 146.078125 73.59375 143.671875 80.496094 L 171.375 108.210938 C 179.910156 105.277344 189.332031 108.699219 193.996094 116.425781 C 198.660156 124.152344 197.300781 134.082031 190.730469 140.265625 C 184.15625 146.453125 174.160156 147.210938 166.734375 142.089844 C 159.304688 136.96875 156.457031 127.355469 159.902344 119.011719 L 134.0625 93.164062 L 134.0625 161.171875 C 142.15625 165.171875 146.355469 174.28125 144.148438 183.035156 C 141.9375 191.789062 133.917969 197.8125 124.894531 197.496094 C 115.871094 197.175781 108.292969 190.601562 106.707031 181.714844 C 105.121094 172.824219 109.953125 164.035156 118.308594 160.617188 L 118.3125 91.992188 C 113.585938 90.054688 109.828125 86.3125 107.875 81.59375 C 105.921875 76.878906 105.933594 71.574219 107.910156 66.867188 L 79.550781 38.515625 L 4.71875 113.359375 C -1.570312 119.648438 -1.570312 129.84375 4.714844 136.132812 L 113.867188 245.28125 C 120.15625 251.570312 130.351562 251.570312 136.640625 245.28125 L 245.28125 136.640625 C 251.574219 130.347656 251.574219 120.148438 245.28125 113.855469 "/>
</g>
</svg>
