<?xml version="1.0" encoding="UTF-8"?>
<svg xmlns="http://www.w3.org/2000/svg" xmlns:xlink="http://www.w3.org/1999/xlink" width="250px" height="250px" viewBox="0 0 250 250" version="1.1">
<g id="surface1">
<path style=" stroke:none;fill-rule:nonzero;fill:rgb(0%,0%,0%);fill-opacity:1;" d="M 125 0 C 55.972656 0 0 57.308594 0 128 C 0 184.554688 35.816406 232.535156 85.484375 249.460938 C 91.730469 250.644531 94.023438 246.683594 94.023438 243.304688 C 94.023438 240.25 93.90625 230.167969 93.855469 219.472656 C 59.078125 227.214844 51.742188 204.371094 51.742188 204.371094 C 46.054688 189.574219 37.859375 185.640625 37.859375 185.640625 C 26.519531 177.695312 38.714844 177.859375 38.714844 177.859375 C 51.269531 178.761719 57.878906 191.050781 57.878906 191.050781 C 69.027344 210.617188 87.121094 204.960938 94.253906 201.691406 C 95.375 193.417969 98.613281 187.769531 102.191406 184.574219 C 74.425781 181.339844 45.238281 170.363281 45.238281 121.316406 C 45.238281 107.339844 50.121094 95.921875 58.117188 86.957031 C 56.820312 83.734375 52.542969 70.714844 59.328125 53.085938 C 59.328125 53.085938 69.828125 49.644531 93.714844 66.203125 C 103.683594 63.367188 114.378906 61.945312 125 61.898438 C 135.625 61.945312 146.328125 63.367188 156.316406 66.203125 C 180.175781 49.644531 190.65625 53.085938 190.65625 53.085938 C 197.460938 70.714844 193.179688 83.734375 191.882812 86.957031 C 199.898438 95.921875 204.746094 107.339844 204.746094 121.316406 C 204.746094 170.480469 175.503906 181.304688 147.667969 184.472656 C 152.152344 188.445312 156.148438 196.234375 156.148438 208.175781 C 156.148438 225.304688 156.003906 239.085938 156.003906 243.304688 C 156.003906 246.710938 158.253906 250.699219 164.589844 249.441406 C 214.226562 232.5 250 184.535156 250 128.003906 C 250 57.308594 194.035156 0 125 0 Z M 46.816406 182.339844 C 46.542969 182.976562 45.5625 183.167969 44.675781 182.730469 C 43.765625 182.3125 43.257812 181.445312 43.550781 180.808594 C 43.820312 180.152344 44.800781 179.96875 45.703125 180.410156 C 46.613281 180.828125 47.132812 181.703125 46.816406 182.339844 Z M 52.964844 187.957031 C 52.371094 188.523438 51.203125 188.261719 50.414062 187.367188 C 49.59375 186.476562 49.441406 185.28125 50.046875 184.707031 C 50.664062 184.140625 51.792969 184.40625 52.609375 185.296875 C 53.429688 186.199219 53.585938 187.386719 52.964844 187.957031 Z M 57.183594 195.144531 C 56.417969 195.691406 55.164062 195.179688 54.390625 194.042969 C 53.625 192.902344 53.625 191.539062 54.410156 190.992188 C 55.183594 190.445312 56.417969 190.9375 57.203125 192.066406 C 57.964844 193.222656 57.964844 194.589844 57.183594 195.148438 Z M 64.316406 203.472656 C 63.632812 204.246094 62.171875 204.035156 61.105469 202.980469 C 60.011719 201.949219 59.707031 200.484375 60.394531 199.710938 C 61.089844 198.933594 62.558594 199.152344 63.632812 200.199219 C 64.71875 201.230469 65.050781 202.707031 64.316406 203.472656 Z M 73.539062 206.28125 C 73.234375 207.285156 71.828125 207.738281 70.414062 207.3125 C 69 206.875 68.074219 205.699219 68.359375 204.6875 C 68.65625 203.679688 70.066406 203.203125 71.492188 203.660156 C 72.90625 204.097656 73.832031 205.261719 73.539062 206.28125 Z M 84.03125 207.472656 C 84.066406 208.527344 82.867188 209.402344 81.378906 209.425781 C 79.882812 209.457031 78.675781 208.605469 78.65625 207.5625 C 78.65625 206.5 79.832031 205.632812 81.328125 205.605469 C 82.8125 205.574219 84.03125 206.425781 84.03125 207.472656 Z M 94.335938 207.070312 C 94.515625 208.097656 93.484375 209.15625 92.007812 209.4375 C 90.554688 209.710938 89.210938 209.074219 89.027344 208.054688 C 88.847656 206.996094 89.898438 205.9375 91.347656 205.664062 C 92.828125 205.402344 94.148438 206.023438 94.335938 207.070312 Z M 94.335938 207.070312 "/>
</g>
</svg>
