<?xml version="1.0" encoding="UTF-8"?>
<svg xmlns="http://www.w3.org/2000/svg" xmlns:xlink="http://www.w3.org/1999/xlink" width="250px" height="250px" viewBox="0 0 250 250" version="1.1">
<g id="surface1">
<rect x="0" y="0" width="250" height="250" style="fill:rgb(94.117647%,85.882353%,30.980392%);fill-opacity:1;stroke:none;"/>
<path style=" stroke:none;fill-rule:nonzero;fill:rgb(19.607843%,20%,18.823529%);fill-opacity:1;" d="M 229.539062 190.375 C 227.710938 178.96875 220.269531 169.390625 198.242188 160.457031 C 190.589844 156.9375 182.058594 154.421875 179.515625 148.621094 C 178.613281 145.246094 178.492188 143.347656 179.0625 141.300781 C 180.703125 134.671875 188.617188 132.605469 194.890625 134.503906 C 198.929688 135.859375 202.757812 138.972656 205.0625 143.941406 C 215.851562 136.953125 215.828125 137 223.359375 132.199219 C 220.605469 127.921875 219.128906 125.949219 217.324219 124.121094 C 210.835938 116.871094 201.996094 113.140625 187.855469 113.425781 C 185.410156 113.734375 182.9375 114.070312 180.488281 114.378906 C 173.433594 116.160156 166.707031 119.867188 162.761719 124.832031 C 150.925781 138.261719 154.300781 161.761719 168.703125 171.4375 C 182.890625 182.082031 203.730469 184.507812 206.394531 194.464844 C 208.984375 206.652344 197.433594 210.597656 185.957031 209.195312 C 177.496094 207.4375 172.789062 203.136719 167.703125 195.320312 C 158.339844 200.738281 158.339844 200.738281 148.71875 206.273438 C 151 211.265625 153.398438 213.523438 157.222656 217.847656 C 175.332031 236.21875 220.652344 235.3125 228.777344 207.507812 C 229.109375 206.558594 231.296875 200.191406 229.539062 190.375 Z M 135.90625 114.898438 L 112.523438 114.898438 C 112.523438 135.101562 112.429688 155.15625 112.429688 175.355469 C 112.429688 188.214844 113.09375 200 111.003906 203.613281 C 107.582031 210.71875 98.71875 209.839844 94.675781 208.460938 C 90.566406 206.441406 88.472656 203.5625 86.050781 199.5 C 85.386719 198.335938 84.886719 197.433594 84.71875 197.363281 C 78.375 201.234375 72.054688 205.132812 65.707031 209.007812 C 68.867188 215.496094 73.527344 221.125 79.492188 224.785156 C 88.402344 230.132812 100.378906 231.773438 112.902344 228.898438 C 121.054688 226.519531 128.089844 221.601562 131.773438 214.117188 C 137.097656 204.300781 135.957031 192.417969 135.90625 179.277344 C 136.027344 157.84375 135.90625 136.40625 135.90625 114.898438 Z M 135.90625 114.898438 "/>
</g>
</svg>
