<?xml version="1.0" encoding="UTF-8"?>
<svg xmlns="http://www.w3.org/2000/svg" xmlns:xlink="http://www.w3.org/1999/xlink" width="250px" height="250px" viewBox="0 0 250 250" version="1.1">
<defs>
<linearGradient id="linear0" gradientUnits="userSpaceOnUse" x1="19.075" y1="18.782" x2="34.898" y2="34.658" gradientTransform="matrix(3.90625,0,0,3.90625,0,0)">
<stop offset="0" style="stop-color:rgb(21.960784%,49.411765%,72.156863%);stop-opacity:1;"/>
<stop offset="1" style="stop-color:rgb(21.176471%,41.176471%,58.039216%);stop-opacity:1;"/>
</linearGradient>
<linearGradient id="linear1" gradientUnits="userSpaceOnUse" x1="28.809" y1="28.882" x2="45.803" y2="45.163" gradientTransform="matrix(3.90625,0,0,3.90625,0,0)">
<stop offset="0" style="stop-color:rgb(100%,87.843137%,32.156863%);stop-opacity:1;"/>
<stop offset="1" style="stop-color:rgb(100%,76.470588%,19.215686%);stop-opacity:1;"/>
</linearGradient>
</defs>
<g id="surface1">
<path style=" stroke:none;fill-rule:nonzero;fill:url(#linear0);" d="M 124.550781 62.5 C 92.816406 62.5 94.796875 76.261719 94.796875 76.261719 L 94.835938 90.519531 L 125.117188 90.519531 L 125.117188 94.796875 L 82.800781 94.796875 C 82.800781 94.796875 62.5 92.492188 62.5 124.515625 C 62.5 156.53125 80.222656 155.398438 80.222656 155.398438 L 90.800781 155.398438 L 90.800781 140.539062 C 90.800781 140.539062 90.230469 122.816406 108.242188 122.816406 L 138.273438 122.816406 C 138.273438 122.816406 155.148438 123.089844 155.148438 106.507812 L 155.148438 79.089844 C 155.148438 79.089844 157.710938 62.5 124.550781 62.5 Z M 107.851562 72.085938 C 110.859375 72.085938 113.300781 74.527344 113.300781 77.535156 C 113.300781 80.542969 110.859375 82.984375 107.851562 82.984375 C 106.40625 82.988281 105.019531 82.414062 103.996094 81.390625 C 102.972656 80.367188 102.398438 78.980469 102.402344 77.535156 C 102.402344 74.523438 104.839844 72.085938 107.851562 72.085938 Z M 107.851562 72.085938 "/>
<path style=" stroke:none;fill-rule:nonzero;fill:url(#linear1);" d="M 125.449219 186.847656 C 157.183594 186.847656 155.203125 173.085938 155.203125 173.085938 L 155.164062 158.828125 L 124.882812 158.828125 L 124.882812 154.550781 L 167.195312 154.550781 C 167.195312 154.550781 187.5 156.855469 187.5 124.835938 C 187.5 92.816406 169.777344 93.953125 169.777344 93.953125 L 159.199219 93.953125 L 159.199219 108.808594 C 159.199219 108.808594 159.769531 126.53125 141.757812 126.53125 L 111.726562 126.53125 C 111.726562 126.53125 94.851562 126.257812 94.851562 142.839844 L 94.851562 170.257812 C 94.851562 170.257812 92.289062 186.847656 125.449219 186.847656 Z M 142.148438 177.261719 C 140.703125 177.265625 139.316406 176.691406 138.292969 175.667969 C 137.269531 174.644531 136.695312 173.257812 136.699219 171.8125 C 136.703125 168.804688 139.140625 166.371094 142.144531 166.371094 C 145.152344 166.371094 147.589844 168.808594 147.589844 171.816406 C 147.589844 174.820312 145.15625 177.257812 142.148438 177.261719 Z M 142.148438 177.261719 "/>
</g>
</svg>
