<?xml version="1.0" encoding="UTF-8"?>
<svg xmlns="http://www.w3.org/2000/svg" xmlns:xlink="http://www.w3.org/1999/xlink" width="250px" height="250px" viewBox="0 0 250 250" version="1.1">
<g id="surface1">
<path style=" stroke:none;fill-rule:nonzero;fill:rgb(0%,84.705882%,100%);fill-opacity:1;" d="M 205.550781 80.949219 C 202.890625 79.921875 200.207031 78.972656 197.503906 78.101562 C 197.957031 76.015625 198.375 73.957031 198.746094 71.9375 C 204.835938 38.734375 200.855469 11.984375 187.253906 3.175781 C 174.210938 -5.265625 152.882812 3.539062 131.339844 24.585938 C 129.21875 26.664062 127.140625 28.804688 125.117188 31 C 123.757812 29.539062 122.378906 28.109375 120.972656 26.703125 C 98.398438 4.199219 75.769531 -5.289062 62.179688 3.546875 C 49.148438 12.015625 45.292969 37.160156 50.777344 68.628906 C 51.320312 71.742188 51.9375 74.84375 52.625 77.925781 C 49.421875 78.949219 46.332031 80.035156 43.371094 81.191406 C 16.902344 91.554688 0 107.792969 0 124.636719 C 0 142.03125 18.144531 159.480469 45.714844 170.058594 C 47.949219 170.914062 50.203125 171.707031 52.472656 172.433594 C 51.738281 175.753906 51.082031 179.09375 50.511719 182.453125 C 45.28125 213.375 49.367188 237.925781 62.359375 246.34375 C 75.78125 255.03125 98.308594 246.101562 120.242188 224.570312 C 122.023438 222.820312 123.761719 221.019531 125.460938 219.171875 C 127.65625 221.550781 129.910156 223.859375 132.21875 226.097656 C 153.46875 246.625 174.453125 254.914062 187.433594 246.476562 C 200.84375 237.761719 205.199219 211.386719 199.542969 179.296875 C 199.097656 176.78125 198.597656 174.28125 198.042969 171.792969 C 199.625 171.265625 201.179688 170.726562 202.691406 170.164062 C 231.351562 159.5 250 142.265625 250 124.636719 C 250 107.730469 232.550781 91.382812 205.550781 80.949219 Z M 199.335938 158.78125 C 197.96875 159.289062 196.5625 159.777344 195.132812 160.253906 C 191.96875 149.007812 187.703125 137.050781 182.476562 124.695312 C 187.460938 112.632812 191.566406 100.828125 194.640625 89.652344 C 197.199219 90.484375 199.679688 91.359375 202.074219 92.285156 C 225.207031 101.226562 239.320312 114.449219 239.320312 124.636719 C 239.320312 135.488281 224.078125 149.574219 199.332031 158.78125 Z M 189.066406 181.625 C 191.570312 195.8125 191.925781 208.640625 190.265625 218.671875 C 188.777344 227.683594 185.785156 233.691406 182.082031 236.097656 C 174.203125 241.21875 157.355469 234.5625 139.183594 217.007812 C 137.035156 214.925781 134.941406 212.78125 132.898438 210.570312 C 139.941406 201.921875 146.984375 191.863281 153.855469 180.695312 C 165.941406 179.492188 177.359375 177.523438 187.710938 174.835938 C 188.222656 177.144531 188.675781 179.410156 189.066406 181.625 Z M 85.230469 235.214844 C 77.53125 238.265625 71.402344 238.351562 67.695312 235.953125 C 59.808594 230.847656 56.53125 211.132812 61.003906 184.691406 C 61.535156 181.566406 62.144531 178.457031 62.828125 175.371094 C 73.070312 177.914062 84.40625 179.746094 96.519531 180.847656 C 103.4375 191.777344 110.679688 201.820312 117.980469 210.617188 C 116.429688 212.304688 114.839844 213.945312 113.21875 215.542969 C 103.515625 225.0625 93.796875 231.816406 85.230469 235.214844 Z M 49.167969 158.714844 C 36.980469 154.035156 26.910156 147.953125 20.011719 141.320312 C 13.808594 135.359375 10.679688 129.4375 10.679688 124.636719 C 10.679688 114.414062 24.25 101.378906 46.886719 92.515625 C 49.632812 91.441406 52.507812 90.425781 55.492188 89.476562 C 58.621094 100.902344 62.726562 112.847656 67.675781 124.925781 C 62.660156 137.1875 58.5 149.324219 55.339844 160.882812 C 53.269531 160.21875 51.210938 159.492188 49.171875 158.714844 Z M 61.257812 66.324219 C 56.558594 39.363281 59.679688 19.027344 67.53125 13.921875 C 75.894531 8.488281 94.390625 16.238281 113.882812 35.671875 C 115.152344 36.941406 116.40625 38.238281 117.632812 39.558594 C 110.371094 48.316406 103.191406 58.289062 96.335938 69.152344 C 84.578125 70.375 73.324219 72.339844 62.976562 74.972656 C 62.339844 72.105469 61.765625 69.222656 61.257812 66.324219 Z M 169.097656 96.222656 C 166.652344 91.480469 164.117188 86.800781 161.496094 82.183594 C 169.46875 83.316406 177.113281 84.820312 184.289062 86.65625 C 182.136719 94.414062 179.449219 102.519531 176.289062 110.828125 C 173.976562 105.90625 171.582031 101.039062 169.097656 96.222656 Z M 125.121094 48.128906 C 130.046875 54.121094 134.980469 60.8125 139.832031 68.070312 C 129.988281 67.546875 120.128906 67.546875 110.285156 68.0625 C 115.140625 60.871094 120.117188 54.191406 125.121094 48.128906 Z M 80.859375 96.304688 C 78.410156 101.082031 76.054688 105.921875 73.804688 110.820312 C 70.695312 102.539062 68.03125 94.394531 65.859375 86.53125 C 72.992188 84.738281 80.597656 83.273438 88.523438 82.164062 C 85.871094 86.808594 83.316406 91.523438 80.863281 96.304688 Z M 88.753906 167.960938 C 80.5625 166.9375 72.84375 165.546875 65.710938 163.804688 C 67.921875 155.800781 70.640625 147.484375 73.816406 139.023438 C 76.078125 143.925781 78.441406 148.769531 80.902344 153.546875 C 83.4375 158.460938 86.058594 163.269531 88.753906 167.960938 Z M 125.414062 201.988281 C 120.351562 195.855469 115.304688 189.070312 110.375 181.773438 C 115.160156 181.984375 120.039062 182.09375 125 182.09375 C 130.09375 182.09375 135.132812 181.964844 140.089844 181.71875 C 135.222656 189.144531 130.308594 195.9375 125.414062 201.988281 Z M 176.390625 138.589844 C 179.730469 147.144531 182.546875 155.417969 184.785156 163.285156 C 177.535156 165.140625 169.710938 166.636719 161.464844 167.746094 C 164.105469 163.042969 166.664062 158.28125 169.136719 153.464844 C 171.652344 148.566406 174.070312 143.609375 176.390625 138.589844 Z M 159.886719 147.472656 C 156.101562 154.859375 152.101562 162.105469 147.894531 169.199219 C 140.273438 169.804688 132.636719 170.109375 125 170.101562 C 117.21875 170.101562 109.652344 169.832031 102.367188 169.300781 C 98.050781 162.222656 93.972656 154.964844 90.144531 147.539062 L 90.148438 147.539062 C 86.335938 140.15625 82.777344 132.609375 79.480469 124.921875 C 82.769531 117.230469 86.316406 109.683594 90.113281 102.292969 L 90.113281 102.296875 C 93.90625 94.902344 97.953125 87.675781 102.234375 80.628906 C 109.671875 79.996094 117.292969 79.667969 125 79.667969 C 132.742188 79.667969 140.375 80 147.804688 80.636719 C 152.046875 87.671875 156.066406 94.875 159.851562 102.230469 C 163.660156 109.605469 167.257812 117.117188 170.628906 124.753906 C 167.289062 132.46875 163.707031 140.046875 159.886719 147.472656 Z M 181.917969 13.566406 C 190.289062 18.988281 193.546875 40.847656 188.285156 69.515625 C 187.949219 71.34375 187.574219 73.207031 187.164062 75.097656 C 176.789062 72.40625 165.527344 70.410156 153.734375 69.167969 C 146.867188 58.183594 139.75 48.199219 132.601562 39.550781 C 134.476562 37.527344 136.390625 35.550781 138.351562 33.632812 C 156.808594 15.597656 174.058594 8.476562 181.917969 13.566406 Z M 125 99.570312 C 137.328125 99.570312 147.324219 110.792969 147.324219 124.636719 C 147.324219 138.480469 137.328125 149.703125 125 149.703125 C 112.671875 149.703125 102.675781 138.480469 102.675781 124.636719 C 102.675781 110.792969 112.671875 99.570312 125 99.570312 Z M 125 99.570312 "/>
</g>
</svg>
