<?xml version="1.0" encoding="UTF-8"?>
<svg xmlns="http://www.w3.org/2000/svg" xmlns:xlink="http://www.w3.org/1999/xlink" width="250px" height="250px" viewBox="0 0 250 250" version="1.1">
<g id="surface1">
<path style=" stroke:none;fill-rule:nonzero;fill:rgb(81.176471%,39.215686%,60.392157%);fill-opacity:1;" d="M 215.332031 143.878906 C 206.542969 143.878906 198.730469 146.484375 192.382812 150.390625 C 189.941406 144.53125 187.988281 139.324219 187.5 134.765625 C 187.011719 130.207031 186.523438 127.605469 187.011719 121.746094 C 187.5 115.886719 189.941406 108.074219 189.941406 107.421875 C 189.941406 107.421875 189.453125 104.167969 184.570312 104.167969 C 179.199219 104.167969 174.804688 105.46875 174.316406 107.421875 L 172.363281 117.1875 C 171.386719 123.046875 162.597656 145.183594 157.226562 156.25 C 155.273438 151.691406 153.808594 147.785156 153.808594 145.183594 C 153.320312 139.972656 152.832031 137.371094 153.320312 131.511719 C 153.808594 125.652344 156.25 118.488281 156.25 117.839844 C 156.25 117.1875 155.761719 113.933594 150.878906 113.933594 C 145.507812 113.933594 141.113281 115.234375 140.625 117.1875 L 138.671875 126.953125 L 122.070312 176.433594 L 118.164062 188.152344 C 117.1875 190.753906 118.164062 188.152344 118.164062 188.800781 L 116.699219 192.058594 L 114.746094 195.3125 C 114.746094 195.3125 114.257812 190.753906 115.234375 184.894531 C 116.699219 172.527344 121.09375 152.996094 121.09375 151.691406 C 121.09375 151.691406 122.070312 148.4375 118.164062 146.484375 C 114.746094 144.53125 113.769531 147.785156 113.28125 147.785156 L 112.792969 148.4375 C 112.792969 148.4375 116.699219 126.300781 104.980469 126.300781 C 98.144531 126.300781 87.890625 137.371094 83.007812 146.484375 L 66.40625 158.855469 L 58.105469 164.714844 L 57.617188 164.0625 C 43.457031 143.878906 17.578125 130.207031 19.042969 103.515625 C 19.042969 93.75 21.972656 68.359375 68.359375 37.109375 C 106.933594 11.71875 137.207031 18.878906 142.578125 34.503906 C 150.390625 56.640625 126.464844 97.65625 86.425781 103.515625 C 71.289062 105.46875 63.476562 97.65625 61.523438 95.050781 C 59.570312 91.796875 59.082031 91.796875 58.105469 92.449219 C 57.128906 93.097656 57.617188 95.703125 58.105469 97.65625 C 59.570312 101.5625 64.453125 108.722656 72.753906 112.628906 C 80.078125 115.886719 97.65625 117.839844 119.140625 106.769531 C 143.066406 94.402344 162.109375 59.894531 156.738281 30.597656 C 150.878906 1.300781 114.257812 -8.464844 80.078125 7.8125 C 59.082031 17.578125 37.109375 33.203125 20.996094 53.386719 C 1.953125 76.824219 -0.976562 97.65625 0 106.121094 C 4.882812 136.71875 36.132812 156.902344 48.828125 171.222656 L 47.363281 172.527344 C 41.015625 177.082031 16.601562 194.011719 10.742188 211.589844 C 3.90625 231.769531 11.71875 246.09375 17.089844 248.046875 C 33.203125 254.558594 50.292969 243.488281 59.082031 225.910156 C 67.871094 207.683594 66.894531 184.246094 62.988281 173.828125 L 62.5 173.175781 L 67.871094 169.269531 L 76.660156 162.761719 C 75.195312 168.621094 74.21875 175.128906 73.730469 184.894531 C 72.753906 195.964844 76.660156 210.9375 81.054688 216.796875 C 83.007812 219.402344 85.449219 219.402344 86.914062 219.402344 C 92.285156 219.402344 94.726562 213.542969 97.65625 206.378906 L 104.003906 188.152344 C 104.003906 188.152344 100.097656 214.84375 110.351562 214.84375 C 113.769531 214.84375 117.675781 208.984375 119.140625 205.730469 L 119.628906 205.078125 L 120.117188 203.777344 L 129.882812 179.6875 L 142.089844 142.578125 L 144.53125 155.597656 C 145.507812 160.808594 147.949219 166.015625 149.414062 171.222656 L 147.460938 175.78125 L 143.554688 182.292969 C 138.671875 190.105469 132.324219 199.21875 131.835938 201.824219 C 130.859375 205.078125 130.859375 207.03125 132.8125 208.984375 C 134.277344 210.285156 136.71875 210.285156 139.160156 210.285156 L 147.949219 207.683594 L 156.25 201.824219 C 161.132812 197.265625 164.0625 190.105469 163.574219 180.988281 C 163.574219 176.433594 162.109375 171.222656 160.644531 166.667969 L 162.109375 164.0625 C 169.921875 149.089844 175.78125 132.160156 175.78125 132.160156 L 178.222656 145.832031 L 182.617188 158.855469 C 176.789062 165.03125 172.25 173.101562 169.433594 182.292969 C 166.503906 193.359375 168.457031 197.917969 172.851562 199.21875 C 174.804688 199.871094 177.734375 198.566406 179.6875 197.265625 C 182.128906 196.613281 185.058594 194.660156 187.988281 192.058594 C 192.871094 186.847656 197.753906 180.339844 197.265625 171.222656 C 197.265625 167.316406 196.289062 162.761719 195.3125 158.855469 C 201.171875 155.597656 209.472656 153.644531 219.238281 155.597656 C 241.210938 158.855469 245.605469 177.082031 244.628906 184.246094 C 243.652344 192.058594 239.257812 195.964844 237.792969 197.265625 L 235.839844 199.871094 C 236.328125 201.171875 236.816406 201.171875 238.28125 201.171875 C 239.746094 200.519531 249.511719 194.660156 250 180.988281 C 250.488281 162.761719 237.792969 143.230469 215.332031 143.878906 Z M 47.363281 218.75 C 40.527344 229.167969 30.273438 233.722656 25.878906 229.816406 C 21.484375 226.5625 22.949219 210.9375 32.226562 199.871094 C 37.597656 193.359375 44.433594 186.847656 48.828125 182.941406 L 53.222656 179.6875 L 53.710938 179.035156 L 55.175781 178.386719 C 58.105469 194.011719 55.175781 207.683594 47.363281 218.75 Z M 100.097656 171.222656 C 97.65625 179.6875 92.285156 200.519531 89.355469 199.21875 C 86.425781 198.566406 84.960938 182.292969 88.378906 166.667969 C 90.332031 158.855469 94.726562 149.738281 97.167969 145.832031 C 101.074219 139.972656 105.46875 138.019531 106.445312 140.625 C 107.910156 143.878906 101.5625 166.015625 100.097656 171.222656 Z M 143.554688 199.21875 L 141.113281 199.871094 L 141.113281 198.566406 L 148.925781 187.5 L 153.320312 180.339844 L 153.320312 180.988281 C 153.320312 190.105469 146.484375 196.613281 143.554688 199.21875 Z M 176.757812 188.800781 C 175.78125 188.152344 176.269531 185.546875 178.710938 178.386719 C 179.6875 175.128906 182.128906 169.921875 186.035156 165.363281 L 187.011719 171.222656 C 187.011719 182.941406 180.664062 186.847656 176.757812 188.800781 Z M 176.757812 188.800781 "/>
</g>
</svg>
