<?xml version="1.0" encoding="UTF-8"?>
<svg xmlns="http://www.w3.org/2000/svg" xmlns:xlink="http://www.w3.org/1999/xlink" width="250px" height="250px" viewBox="0 0 250 250" version="1.1">
<defs>
<linearGradient id="linear0" gradientUnits="userSpaceOnUse" x1="-0.02778" y1="0.32" x2="1" y2="0.67556" gradientTransform="matrix(250,0,0,249.351562,0,0)">
<stop offset="0" style="stop-color:rgb(13.333333%,59.607843%,74.117647%);stop-opacity:1;"/>
<stop offset="1" style="stop-color:rgb(5.490196%,84.313725%,70.980392%);stop-opacity:1;"/>
</linearGradient>
</defs>
<g id="surface1">
<path style=" stroke:none;fill-rule:nonzero;fill:url(#linear0);" d="M 125 0 C 91.667969 0 70.832031 27.707031 62.5 83.117188 C 75 55.410156 89.582031 45.019531 106.25 51.949219 C 115.757812 55.898438 122.554688 67.367188 130.078125 80.0625 C 142.335938 100.742188 156.519531 124.675781 187.5 124.675781 C 220.832031 124.675781 241.667969 96.96875 250 41.558594 C 237.5 69.265625 222.917969 79.652344 206.25 72.726562 C 196.742188 68.777344 189.945312 57.308594 182.421875 44.613281 C 170.164062 23.933594 155.980469 0 125 0 Z M 62.5 124.675781 C 29.167969 124.675781 8.332031 152.382812 0 207.792969 C 12.5 180.085938 27.082031 169.695312 43.75 176.625 C 53.257812 180.574219 60.054688 192.042969 67.578125 204.738281 C 79.835938 225.417969 94.019531 249.351562 125 249.351562 C 158.332031 249.351562 179.167969 221.644531 187.5 166.234375 C 175 193.941406 160.417969 204.328125 143.75 197.402344 C 134.242188 193.453125 127.445312 181.980469 119.921875 169.289062 C 107.664062 148.609375 93.480469 124.675781 62.5 124.675781 Z M 62.5 124.675781 "/>
</g>
</svg>
