<?xml version="1.0" encoding="UTF-8"?>
<svg xmlns="http://www.w3.org/2000/svg" xmlns:xlink="http://www.w3.org/1999/xlink" width="250px" height="250px" viewBox="0 0 250 250" version="1.1">
<g id="surface1">
<path style=" stroke:none;fill-rule:nonzero;fill:rgb(19.215686%,47.058824%,77.647059%);fill-opacity:1;" d="M 19.53125 0 L 230.46875 0 C 241.257812 0 250 8.742188 250 19.53125 L 250 230.46875 C 250 241.257812 241.257812 250 230.46875 250 L 19.53125 250 C 8.742188 250 0 241.257812 0 230.46875 L 0 19.53125 C 0 8.742188 8.742188 0 19.53125 0 Z M 19.53125 0 "/>
<path style=" stroke:none;fill-rule:nonzero;fill:rgb(100%,100%,100%);fill-opacity:1;" d="M 146.992188 195.777344 L 146.992188 222.75 C 151.375 224.996094 156.566406 226.683594 162.554688 227.804688 C 168.542969 228.929688 174.855469 229.492188 181.492188 229.492188 C 187.960938 229.492188 194.105469 228.875 199.925781 227.636719 C 205.746094 226.402344 210.851562 224.363281 215.234375 221.527344 C 219.621094 218.6875 223.09375 214.980469 225.65625 210.398438 C 228.210938 205.820312 229.492188 200.160156 229.492188 193.417969 C 229.492188 188.527344 228.761719 184.242188 227.296875 180.5625 C 225.851562 176.90625 223.703125 173.570312 220.972656 170.742188 C 218.214844 167.875 214.910156 165.304688 211.058594 163.03125 C 207.207031 160.753906 202.863281 158.605469 198.027344 156.582031 C 194.484375 155.121094 191.304688 153.703125 188.492188 152.324219 C 185.683594 150.949219 183.292969 149.542969 181.324219 148.109375 C 179.355469 146.679688 177.835938 145.160156 176.769531 143.558594 C 175.699219 141.957031 175.164062 140.144531 175.164062 138.121094 C 175.164062 136.269531 175.644531 134.597656 176.597656 133.109375 C 177.554688 131.617188 178.90625 130.339844 180.648438 129.273438 C 182.390625 128.203125 184.527344 127.375 187.058594 126.785156 C 189.589844 126.195312 192.402344 125.902344 195.496094 125.902344 C 197.746094 125.902344 200.121094 126.070312 202.625 126.40625 C 205.125 126.742188 207.644531 127.261719 210.175781 127.964844 C 212.699219 128.667969 215.164062 129.554688 217.554688 130.621094 C 219.875 131.648438 222.089844 132.890625 224.175781 134.328125 L 224.175781 109.128906 C 220.070312 107.554688 215.585938 106.386719 210.722656 105.628906 C 205.859375 104.871094 200.277344 104.492188 193.976562 104.492188 C 187.566406 104.492188 181.492188 105.179688 175.757812 106.558594 C 170.019531 107.933594 164.972656 110.082031 160.613281 113.003906 C 156.253906 115.925781 152.8125 119.648438 150.28125 124.171875 C 147.75 128.695312 146.484375 134.105469 146.484375 140.398438 C 146.484375 148.433594 148.804688 155.289062 153.445312 160.964844 C 158.085938 166.640625 165.125 171.445312 174.574219 175.378906 C 178.0625 176.800781 181.523438 178.289062 184.953125 179.847656 C 188.15625 181.308594 190.925781 182.824219 193.261719 184.398438 C 195.59375 185.96875 197.4375 187.683594 198.785156 189.539062 C 200.136719 191.394531 200.8125 193.5 200.8125 195.859375 C 200.820312 197.558594 200.386719 199.230469 199.542969 200.707031 C 198.703125 202.195312 197.421875 203.488281 195.707031 204.585938 C 193.992188 205.679688 191.855469 206.535156 189.296875 207.15625 C 186.738281 207.773438 183.742188 208.082031 180.3125 208.082031 C 174.460938 208.082031 168.671875 207.058594 162.933594 205.003906 C 157.195312 202.953125 151.882812 199.878906 146.992188 195.777344 Z M 102.03125 128.65625 L 136.71875 128.65625 L 136.71875 106.445312 L 40.039062 106.445312 L 40.039062 128.65625 L 74.554688 128.65625 L 74.554688 227.539062 L 102.03125 227.539062 Z M 102.03125 128.65625 "/>
</g>
</svg>
