<?xml version="1.0" encoding="UTF-8"?>
<svg xmlns="http://www.w3.org/2000/svg" xmlns:xlink="http://www.w3.org/1999/xlink" width="250px" height="250px" viewBox="0 0 250 250" version="1.1">
<defs>
<linearGradient id="linear0" gradientUnits="userSpaceOnUse" x1="0.5" y1="0" x2="0.5" y2="1" gradientTransform="matrix(249.03125,0,0,249.539062,-0.00390625,0.140625)">
<stop offset="0" style="stop-color:rgb(100%,100%,100%);stop-opacity:0.25098;"/>
<stop offset="1" style="stop-color:rgb(100%,100%,100%);stop-opacity:0;"/>
</linearGradient>
</defs>
<g id="surface1">
<path style=" stroke:none;fill-rule:nonzero;fill:rgb(0%,39.607843%,66.27451%);fill-opacity:1;" d="M 240.367188 26.449219 L 189.054688 1.550781 C 183.117188 -1.332031 176.019531 -0.117188 171.355469 4.582031 L 3.382812 158.9375 C -1.132812 163.089844 -1.125 170.261719 3.394531 174.40625 L 17.117188 186.976562 C 20.816406 190.367188 26.386719 190.617188 30.367188 187.570312 L 232.644531 32.910156 C 239.429688 27.722656 249.179688 32.597656 249.179688 41.183594 L 249.179688 40.582031 C 249.179688 34.558594 245.753906 29.0625 240.367188 26.449219 Z M 240.367188 26.449219 "/>
<path style=" stroke:none;fill-rule:nonzero;fill:rgb(0%,47.843137%,80%);fill-opacity:1;" d="M 240.367188 223.242188 L 189.054688 248.144531 C 183.117188 251.023438 176.019531 249.808594 171.359375 245.113281 L 3.382812 90.753906 C -1.132812 86.601562 -1.125 79.433594 3.394531 75.289062 L 17.117188 62.71875 C 20.816406 59.328125 26.386719 59.078125 30.367188 62.125 L 232.644531 216.785156 C 239.433594 221.972656 249.179688 217.09375 249.179688 208.507812 L 249.179688 209.109375 C 249.179688 215.136719 245.753906 220.628906 240.367188 223.242188 Z M 240.367188 223.242188 "/>
<path style=" stroke:none;fill-rule:nonzero;fill:rgb(12.156863%,61.176471%,94.117647%);fill-opacity:1;" d="M 188.894531 248.164062 C 182.953125 251.042969 175.855469 249.828125 171.195312 245.128906 C 176.9375 250.917969 186.757812 246.816406 186.757812 238.628906 L 186.757812 11.09375 C 186.757812 2.910156 176.9375 -1.191406 171.195312 4.597656 C 175.855469 -0.101562 182.953125 -1.316406 188.894531 1.5625 L 240.195312 26.425781 C 245.585938 29.039062 249.015625 34.535156 249.015625 40.5625 L 249.015625 209.164062 C 249.015625 215.191406 245.585938 220.6875 240.195312 223.300781 Z M 188.894531 248.164062 "/>
<path style=" stroke:none;fill-rule:nonzero;fill:url(#linear0);" d="M 176.589844 248.628906 C 180.59375 250.199219 185.070312 250.027344 188.945312 248.148438 L 240.214844 223.285156 C 245.601562 220.667969 249.027344 215.175781 249.027344 209.148438 L 249.027344 40.546875 C 249.027344 34.519531 245.601562 29.027344 240.214844 26.410156 L 188.941406 1.546875 C 183.003906 -1.332031 175.910156 -0.117188 171.253906 4.582031 L 73.101562 94.832031 L 30.347656 62.125 C 26.371094 59.078125 20.800781 59.328125 17.105469 62.71875 L 3.394531 75.289062 C -1.128906 79.433594 -1.132812 86.601562 3.382812 90.753906 L 40.460938 124.847656 L 3.382812 158.9375 C -1.132812 163.089844 -1.128906 170.261719 3.394531 174.40625 L 17.105469 186.976562 C 20.800781 190.363281 26.371094 190.613281 30.347656 187.570312 L 73.101562 154.859375 L 171.253906 245.113281 C 172.769531 246.644531 174.589844 247.839844 176.589844 248.628906 Z M 186.808594 67.867188 L 112.335938 124.847656 L 186.808594 181.824219 Z M 186.808594 67.867188 "/>
</g>
</svg>
