<?xml version="1.0" encoding="utf-8"?>
<!-- Generator: Adobe Illustrator 28.5.0, SVG Export Plug-In . SVG Version: 9.03 Build 54727)  -->
<svg version="1.0" id="Layer_1" xmlns="http://www.w3.org/2000/svg" xmlns:xlink="http://www.w3.org/1999/xlink" x="0px" y="0px"
	 viewBox="0 0 300 300" style="enable-background:new 0 0 300 300;" xml:space="preserve">
<style type="text/css">
	.st0{fill:#FF2800;}
</style>
<g>
	<path class="st0" d="M250.6,206.9c-5.7-2.1-11.9,0.8-14,6.5c-11.6,31.4-58.7,45.1-97.5,44.6c-16.8-0.2-30.7-2.9-40.8-6.7
		c30.5-2.8,71.7-14.2,112.7-48.5c30.7-25.6,50-65.7,50.4-104.5c0.3-29.2-10.2-54.5-29.5-71.3c-13-11.4-33.8-16.1-55.6-12.8
		C149.6,18.3,110,35.8,73,96.3c-29,47.2-39.5,86.4-32,119.8c1.3,5.9,7.1,9.6,13,8.3c5.9-1.3,9.6-7.1,8.3-13
		c-6-27.2,3.8-62.1,29.3-103.6c34.4-56.1,69.9-69.1,88.1-71.9c18.3-2.8,31.9,2.4,37.9,7.7c14.4,12.6,22.2,32,22,54.6
		c-0.3,32.6-16.6,66.3-42.5,88c-48.2,40.3-95.6,46-126.8,43.8c-3.7-0.3-7.2,1.3-9.4,4.2c-2.2,2.9-2.9,6.7-1.7,10.2
		c8.7,25.6,46.9,35.1,79.7,35.6c0.8,0,1.6,0,2.4,0c47.2,0,100.7-18,115.8-58.9C259.1,215.3,256.2,209,250.6,206.9z"/>
	<path class="st0" d="M51.6,256.4c-6,0-10.9,4.9-10.9,10.9v8.6c0,6,4.9,10.9,10.9,10.9s10.9-4.9,10.9-10.9v-8.6
		C62.5,261.3,57.6,256.4,51.6,256.4z"/>
</g>
</svg>
