<svg xmlns="http://www.w3.org/2000/svg" xmlns:xlink="http://www.w3.org/1999/xlink" width="556px" height="116px" viewBox="0 0 556 116"><title>Group 36</title><defs><polygon id="path-1" points="0 0 274.5799 0 274.5799 77.2966 0 77.2966"></polygon></defs><g id="Page-1" stroke="none" stroke-width="1" fill="none" fill-rule="evenodd"><g id="Group-36"><path d="M186.5145,77.1702 C186.5145,66.2962 181.0775,60.3792 170.6025,60.3792 L154.6105,60.3792 L154.6105,93.9612 L170.6025,93.9612 C181.0775,93.9612 186.5145,88.0442 186.5145,77.1702" id="Fill-1" fill="#2D5ED4"></path><g id="Group-5" transform="translate(0.000000, 38.522200)"><mask id="mask-2" fill="white"><use xlink:href="#path-1"></use></mask><g id="Clip-4"></g><path d="M10.6639,38.648 L10.6639,38.471 L10.6639,11.862 C10.6639,11.143 11.1439,10.663 11.8639,10.663 L39.3029,10.663 C57.8689,10.663 67.8559,22.892 67.9249,38.486 C67.9259,38.486 67.9269,38.487 67.9279,38.487 L67.9279,65.434 C67.9279,66.154 67.4479,66.633 66.7299,66.633 L56.4949,66.633 C55.7749,66.633 55.2959,66.154 55.2959,65.434 L55.2959,38.648 C55.2959,27.774 49.6179,21.857 39.1429,21.857 L23.2969,21.857 L23.2969,38.551 L23.2969,38.648 L23.2969,65.434 C23.2969,66.154 22.8169,66.633 22.0979,66.633 L11.8639,66.633 C11.1429,66.633 10.6639,66.154 10.6639,65.434 L10.6639,38.648 Z M104.2329,10.023 C120.1439,10.023 133.0969,22.657 133.0969,38.888 C133.0969,55.039 120.1439,67.672 104.2329,67.672 C88.4009,67.672 75.4479,55.039 75.4479,38.888 C75.4479,22.657 88.4009,10.023 104.2329,10.023 L104.2329,10.023 Z M141.9779,11.862 C141.9779,11.143 142.4579,10.663 143.1779,10.663 L170.7629,10.663 C189.3929,10.663 199.3879,22.976 199.3879,38.648 C199.3879,54.32 189.3929,66.633 170.7629,66.633 L143.1779,66.633 C142.4579,66.633 141.9779,66.154 141.9779,65.434 L141.9779,11.862 Z M235.0529,10.023 C250.9649,10.023 263.9169,22.657 263.9169,38.888 C263.9169,55.039 250.9649,67.672 235.0529,67.672 C219.2219,67.672 206.2689,55.039 206.2689,38.888 C206.2689,22.657 219.2219,10.023 235.0529,10.023 L235.0529,10.023 Z M-0.0001,77.297 L274.5799,77.297 L274.5799,0 L-0.0001,0 L-0.0001,77.297 Z" id="Fill-3" fill="#2D5ED4" mask="url(#mask-2)"></path></g><path d="M104.2325,93.8014 C113.3475,93.8014 120.2245,86.6854 120.2245,77.4104 C120.2245,67.9754 113.3475,60.9394 104.2325,60.9394 C95.1975,60.9394 88.2415,67.9754 88.2415,77.4104 C88.2415,86.6854 95.1975,93.8014 104.2325,93.8014" id="Fill-6" fill="#2D5ED4"></path><path d="M235.0526,93.8014 C244.1686,93.8014 251.0446,86.6854 251.0446,77.4104 C251.0446,67.9754 244.1686,60.9394 235.0526,60.9394 C226.0176,60.9394 219.0616,67.9754 219.0616,77.4104 C219.0616,86.6854 226.0176,93.8014 235.0526,93.8014" id="Fill-8" fill="#2D5ED4"></path><path d="M293.8482,7.28 C294.3182,7.28 294.7242,7.292 295.0672,7.319 C295.4102,7.346 295.6992,7.391 295.9352,7.452 C296.1692,7.514 296.3542,7.59 296.4892,7.678 C296.6242,7.768 296.7192,7.883 296.7742,8.025 L306.8252,28.705 C307.0432,29.149 306.9612,29.454 306.5812,29.623 C306.2012,29.793 305.4712,29.877 304.3872,29.877 C303.7002,29.877 303.1402,29.867 302.7072,29.85 C302.2742,29.832 301.9312,29.793 301.6792,29.729 C301.4242,29.668 301.2352,29.58 301.1082,29.465 C300.9832,29.348 300.8822,29.21 300.8112,29.05 L293.8482,13.773 L286.9682,29.05 C286.8962,29.21 286.7912,29.348 286.6562,29.465 C286.5202,29.58 286.3212,29.668 286.0582,29.729 C285.7982,29.793 285.4492,29.832 285.0162,29.85 C284.5832,29.867 284.0232,29.877 283.3352,29.877 C282.2522,29.877 281.5212,29.793 281.1422,29.623 C280.7622,29.454 280.6722,29.149 280.8712,28.705 L290.8682,7.998 C290.9942,7.75 291.2872,7.567 291.7492,7.452 C292.2082,7.337 292.9082,7.28 293.8482,7.28 L293.8482,7.28 Z M274.5802,38.521 L313.1012,38.521 L313.1012,0 L274.5802,0 L274.5802,38.521 Z" id="Fill-10" fill="#2D5ED4"></path><path d="M369.9432,81.1165 C365.5242,80.9015 360.5862,80.8325 356.1502,80.8325 L346.4372,80.8325 L346.0872,85.4885 C352.4062,85.4885 358.6972,85.5945 365.0092,85.4885 L364.2512,98.0755 L345.1702,98.0755 L344.8272,103.0535 C352.8662,103.0535 360.8562,102.8475 368.8802,102.4235 L368.2372,115.3115 L325.7512,115.3115 C327.9752,100.2005 328.7542,83.8365 328.4842,68.5645 L370.5802,68.5645 L369.9432,81.1165 Z M405.2212,81.1885 L408.4782,91.9385 L400.3152,91.9385 L405.2212,81.1885 Z M415.0772,115.3115 L434.3482,115.3115 C428.2262,99.9045 422.4682,84.2685 417.0452,68.5645 L395.1622,68.5645 C388.9782,81.5975 376.0272,105.2955 370.0472,115.3115 L390.0932,115.3115 L395.6222,103.0275 L411.1082,103.0275 C412.5302,107.0765 414.0312,111.1475 415.0772,115.3115 L415.0772,115.3115 Z M480.8692,81.1165 C476.4432,80.9015 471.4982,80.8325 467.0732,80.8325 L457.3492,80.8325 L457.0062,85.4885 C463.3182,85.4885 470.1182,85.5945 476.4322,85.4885 L475.6582,98.0755 L456.4352,98.0755 C456.2492,103.8065 456.0612,109.5675 456.0202,115.3115 L436.6702,115.3115 C437.9402,106.7005 439.6182,80.5525 439.4032,68.5645 L481.5022,68.5645 L480.8692,81.1165 Z M482.4332,115.3115 C483.3532,101.8615 484.5542,89.0285 484.5542,68.5645 L503.5482,68.5645 C502.3542,83.7805 501.5132,94.2865 501.5132,115.3115 L482.4332,115.3115 Z M554.3432,81.2585 C550.1252,80.9725 545.6372,80.8325 539.0932,80.8325 C538.1792,90.8575 537.6782,100.9485 537.4702,115.3115 L518.8362,115.3115 C520.1722,103.8965 520.8702,92.4695 520.9442,80.8325 C510.1052,80.8325 508.0222,81.1165 505.7042,81.2585 L506.3472,68.5645 L554.9722,68.5645 L554.3432,81.2585 Z" id="Fill-12" fill="#2D5ED4"></path><path d="M336.4641,43.3327 C336.5741,41.9167 336.6891,40.4847 336.7651,39.1597 L329.8101,39.1597 C329.7201,42.6337 329.5161,45.6377 329.3321,48.1487 C329.1731,50.3117 329.0481,52.1147 329.0481,53.5147 C329.0481,55.0097 329.7481,56.5047 331.5611,57.5477 C333.1111,58.4537 335.4711,59.0357 338.8691,59.0357 C343.6201,59.0357 346.2191,57.8437 347.6341,56.3817 C349.0291,54.9557 349.2741,53.2797 349.2881,52.2277 C349.3741,48.3947 349.9251,41.0597 350.0671,39.1597 L342.9661,39.1597 C342.9041,41.6227 342.7381,47.4097 342.1391,51.1457 C341.9761,52.1567 341.7311,52.8727 341.2361,53.3587 C340.7411,53.8597 340.0281,54.0747 338.9211,54.0747 C337.8551,54.0747 337.1251,53.6517 336.6711,52.9347 C336.2421,52.2617 336.0761,51.3467 336.0761,50.3187 C336.0761,48.3677 336.2671,45.8687 336.4641,43.3327" id="Fill-14" fill="#2D5ED4"></path><path d="M353.4616,48.6373 C353.2396,52.6983 352.9386,56.3923 352.7076,58.6383 L358.9326,58.6383 C358.9676,54.9803 359.1156,52.0873 359.2026,50.0183 C359.2436,49.1663 359.2746,48.4683 359.2996,47.9283 L359.3056,47.5373 L359.3156,46.4873 C360.0326,47.6093 360.5626,48.7633 361.1296,49.9623 C362.2166,52.2913 363.4416,54.6553 364.6556,57.0073 C364.9046,57.4753 365.1436,57.9233 365.5076,58.6383 L374.0376,58.6383 C374.1166,55.3743 374.2656,52.1253 374.4586,48.8753 C374.6526,45.6593 374.8986,42.4193 375.1826,39.1593 L368.7426,39.1593 C368.7216,40.9313 368.6796,42.6863 368.6176,44.4193 C368.5446,46.3773 368.4516,48.2923 368.3306,50.1603 L368.2996,50.5513 L368.2446,51.7173 C367.7106,50.7283 367.2406,49.7153 366.7736,48.6913 C366.1606,47.3083 365.5246,45.9243 364.8736,44.5403 C364.0296,42.7603 363.1646,40.9553 362.2646,39.1593 L353.7586,39.1593 C353.7586,42.2033 353.6386,45.5163 353.4616,48.6373" id="Fill-16" fill="#2D5ED4"></path><path d="M378.127,56.3228 C378.071,57.1078 378.017,57.8818 377.958,58.6378 L385.338,58.6378 C385.352,49.9798 385.695,45.4468 386.172,39.1588 L378.833,39.1588 C378.819,46.4328 378.473,51.4808 378.127,56.3228" id="Fill-18" fill="#2D5ED4"></path><path d="M395.3253,58.6378 L403.5153,58.6378 L413.1913,39.1588 L406.0183,39.1588 C405.2213,41.2598 404.3153,43.3148 403.4113,45.3668 C402.4673,47.5368 401.5023,49.6928 400.6923,51.9128 C400.4403,52.5718 400.1763,53.2328 399.8993,53.8908 C399.7063,53.2538 399.5403,52.6338 399.3803,51.9888 C398.8303,49.6548 398.1493,47.3078 397.4743,44.9538 C396.9103,43.0368 396.3423,41.1058 395.8643,39.1588 L388.7263,39.1588 C389.1693,40.4388 389.6713,41.8858 390.1723,43.3148 C391.9513,48.4148 393.7193,53.5148 395.3253,58.6378" id="Fill-20" fill="#2D5ED4"></path><path d="M429.9046,43.6891 C430.7146,43.7131 431.5176,43.7301 432.3266,43.7771 L432.5726,39.1591 L415.7206,39.1591 C415.7476,41.6631 415.5996,45.3361 415.3986,48.9301 C415.1776,52.7861 414.8756,56.5401 414.6126,58.6381 L431.5176,58.6381 L431.8356,53.8901 C430.6106,53.9541 429.4656,54.0181 428.0916,54.0561 C426.5406,54.1061 424.7356,54.1391 422.2706,54.1391 L421.8316,54.1391 L421.8666,53.7001 L422.0156,51.5371 L422.0386,51.1491 L422.4196,51.1491 L430.1426,51.1491 L430.4136,46.5341 C429.9226,46.5441 429.4166,46.5671 428.8946,46.5851 C427.8666,46.6161 426.8496,46.6541 425.8806,46.6541 L422.8036,46.6541 L422.3746,46.6541 L422.4066,46.2101 L422.5546,44.0491 L422.5786,43.6651 L422.9526,43.6651 L427.0916,43.6651 C427.9806,43.6651 428.9146,43.6761 429.9046,43.6891" id="Fill-22" fill="#2D5ED4"></path><path d="M442.3344,51.4886 C442.4244,48.9456 442.5354,46.4156 442.7014,43.8986 L442.7284,43.5126 L443.1024,43.5126 L444.9054,43.5126 L444.9854,43.5126 C446.7184,43.5126 448.5944,43.5126 448.5944,45.5116 C448.5944,46.4156 448.1894,47.0276 447.5874,47.4346 C446.8674,47.9276 445.8604,48.0866 444.9954,48.0866 C444.7704,48.0866 444.5454,48.0706 444.3104,48.0556 L444.2624,48.0456 C444.7144,49.7406 445.1444,51.4506 445.5554,53.1806 C445.9954,55.0046 446.4004,56.8156 446.8124,58.6386 L454.0864,58.6386 C453.7954,57.8176 453.5004,56.9906 453.2064,56.1636 C452.5394,54.2776 451.8604,52.3956 451.2724,50.4606 L451.1714,50.1216 L451.4864,49.9796 C452.7294,49.4156 453.6844,48.6756 454.3104,47.7306 C454.9124,46.8136 455.2244,45.7096 455.2244,44.3816 C455.2244,41.9376 454.0344,40.6446 452.5394,39.9616 C450.9884,39.2456 449.1194,39.1596 447.8944,39.1596 L436.3654,39.1596 C436.3654,42.4186 436.3194,45.6686 436.1754,48.9456 C436.0324,52.1806 435.7844,55.4156 435.4034,58.6386 L442.1714,58.6386 C442.2034,56.2606 442.2584,53.8696 442.3344,51.4886" id="Fill-24" fill="#2D5ED4"></path><path d="M470.803,43.6335 C471.412,43.7775 471.997,43.9515 472.557,44.1595 L472.184,39.2525 C471.312,39.0755 470.412,38.9375 469.512,38.8375 C468.588,38.7375 467.661,38.6895 466.73,38.6895 C464.093,38.6895 462.252,39.2695 461.031,40.1525 C459.526,41.2185 458.937,42.7335 458.937,44.1035 C458.937,46.9195 461.314,48.7485 463.152,50.1635 C464.443,51.1705 465.481,51.9835 465.481,52.9415 C465.481,54.2705 463.622,54.2705 462.809,54.2705 C461.889,54.2705 460.806,54.0485 459.751,53.7385 C458.954,53.5185 458.166,53.2535 457.494,53.0055 L457.962,58.2955 C458.9,58.4325 459.954,58.5915 461.007,58.7175 C462.18,58.8525 463.367,58.9465 464.401,58.9465 C467.194,58.9465 469.108,58.3155 470.363,57.3735 C471.938,56.1965 472.509,54.5265 472.509,53.0005 C472.509,50.6305 470.222,48.8765 468.398,47.4985 C467.066,46.4865 465.958,45.6435 465.958,44.7255 C465.958,44.0165 466.498,43.6745 467.135,43.5075 C467.661,43.3805 468.231,43.3635 468.55,43.3635 C469.297,43.3635 470.062,43.4605 470.803,43.6335" id="Fill-26" fill="#2D5ED4"></path><path d="M476.3187,56.3332 C476.2707,57.1082 476.2007,57.8872 476.1527,58.6382 L483.4197,58.6382 C483.4257,49.9802 483.7687,45.4472 484.2537,39.1592 L477.0217,39.1592 C477.0037,46.4332 476.6507,51.4812 476.3187,56.3332" id="Fill-28" fill="#2D5ED4"></path><path d="M505.8079,41.5194 C504.4069,39.9754 502.3479,39.1594 499.7799,39.1594 L488.1869,39.1594 C488.1809,44.5504 488.0389,48.6644 487.8449,51.8554 C487.6659,54.8454 487.4579,57.0084 487.2879,58.6374 L498.3409,58.6374 C501.3129,58.6374 503.6839,57.5964 505.3239,55.8214 C507.0259,53.9634 507.9569,51.2984 507.9569,48.1554 C507.9569,45.2764 507.1889,43.0294 505.8079,41.5194 M499.3889,52.9414 C498.4439,53.8414 497.1639,54.1394 495.7969,54.1394 C495.5999,54.1394 495.3749,54.1294 495.1639,54.1064 C494.9639,54.0974 494.7619,54.0754 494.5419,54.0334 L494.1849,53.9874 L494.1989,53.6204 L494.6209,44.1804 L494.6339,43.8514 L494.9559,43.7994 C495.2219,43.7514 495.4819,43.7234 495.7419,43.6894 C496.0019,43.6744 496.2609,43.6644 496.5209,43.6644 C498.0089,43.6644 499.1049,44.0624 499.8459,44.8424 C500.5829,45.6214 500.9279,46.7514 500.9279,48.2514 C500.9279,50.5814 500.3299,52.0524 499.3889,52.9414" id="Fill-30" fill="#2D5ED4"></path><path d="M529.6916,49.184 C528.4806,45.852 527.3036,42.512 526.1766,39.16 L517.4206,39.16 C516.2066,41.758 514.4316,45.25 512.6116,48.714 C510.6176,52.513 508.5836,56.243 507.1886,58.638 L514.7526,58.638 L516.7046,54.193 L516.8196,53.954 L517.0816,53.954 L524.1646,53.954 L524.4426,53.954 L524.5386,54.224 L524.5386,54.231 L524.5456,54.233 C525.0476,55.697 525.5566,57.143 525.9366,58.638 L533.2276,58.638 C532.0176,55.518 530.8396,52.364 529.6916,49.184 L529.6916,49.184 Z M518.6046,49.606 L521.5006,43.046 L523.4566,49.606 L518.6046,49.606 Z" id="Fill-32" fill="#2D5ED4"></path><path d="M553.7377,41.5194 C552.3397,39.9754 550.2807,39.1594 547.7237,39.1594 L536.1277,39.1594 C536.1137,44.5504 535.9787,48.6644 535.7887,51.8554 C535.5987,54.8454 535.3837,57.0084 535.2147,58.6374 L546.2807,58.6374 C549.2537,58.6374 551.6167,57.5964 553.2637,55.8214 C554.9627,53.9634 555.8897,51.2984 555.8897,48.1554 C555.8897,45.2764 555.1287,43.0294 553.7377,41.5194 M547.3317,52.9414 C546.3737,53.8484 545.1047,54.1394 543.7367,54.1394 C543.5297,54.1394 543.3117,54.1294 543.1007,54.1064 C542.9037,54.0974 542.6997,54.0754 542.4737,54.0334 L542.1247,53.9874 L542.1387,53.6204 L542.5607,44.1804 L542.5717,43.8514 L542.8887,43.7994 C543.1527,43.7514 543.4117,43.7234 543.6817,43.6894 C543.9447,43.6744 544.1937,43.6644 544.4537,43.6644 C545.9447,43.6644 547.0457,44.0624 547.7857,44.8424 C548.5157,45.6214 548.8687,46.7514 548.8687,48.2514 C548.8687,50.5814 548.2697,52.0524 547.3317,52.9414" id="Fill-34" fill="#2D5ED4"></path></g></g></svg>